<svg id="Final_Virus" data-name="Final Virus" xmlns="http://www.w3.org/2000/svg" viewBox="0 0 908.04 908.04"><defs><style>.cls-1{fill:#231f20;}</style></defs><path class="cls-1" d="M950.93,476.28c-19.45-19.45-45.11-10.72-70.44,0-8.32,3.51-15.78,6.67-22.44,9.55H775.42q-1.23-12.81-3.66-25.24L785,457.05c5.49.64,11.64,1.31,18.49,2.05,20.88,2.27,41.63,3.11,52.58-14.09s5.18-38.77-12.91-48.19-35.63,1.69-52.58,14.09q-8.34,6.09-15,11l-13.16,3.53q-4.17-12.13-9.44-23.72l71.52-41.29c7.2-.83,15.25-1.83,24.2-2.94,27.3-3.39,53.89-8.65,61-35.22a49.82,49.82,0,0,0-35.22-61c-26.58-7.12-44.42,13.28-61,35.22-5.44,7.2-10.33,13.67-14.65,19.5l-71.56,41.31q-7.43-10.38-15.82-20l9.68-9.68c5.08-2.19,10.74-4.69,17-7.47,19.21-8.48,37.61-18.12,38.49-38.49s-14.91-36.17-35.28-35.28-30,19.28-38.49,38.49c-2.78,6.3-5.28,12-7.47,17l-9.68,9.68q-9.62-8.37-20-15.82L707,224.21c5.83-4.32,12.3-9.21,19.5-14.65,21.94-16.59,42.34-34.43,35.22-61a49.82,49.82,0,0,0-61-35.22c-26.57,7.12-31.83,33.71-35.22,61-1.11,8.95-2.11,17-2.94,24.2l-41.29,71.52q-11.58-5.26-23.72-9.44l3.53-13.16q4.95-6.65,11-15c12.4-16.95,23.51-34.49,14.09-52.58S595.19,156,578,167s-16.36,31.7-14.09,52.58c.74,6.85,1.41,13,2.05,18.49l-3.54,13.19q-12.42-2.42-25.24-3.66V165c2.88-6.66,6-14.12,9.55-22.44,10.72-25.33,19.45-51,0-70.44a49.81,49.81,0,0,0-70.44,0c-19.45,19.45-10.72,45.11,0,70.44,3.51,8.32,6.67,15.78,9.55,22.44v82.63q-12.81,1.23-25.24,3.66l-3.54-13.19c.64-5.49,1.31-11.64,2.05-18.49,2.27-20.88,3.11-41.63-14.09-52.58s-38.77-5.18-48.19,12.91,1.69,35.63,14.09,52.58q6.09,8.34,11,15l3.53,13.16q-12.13,4.17-23.72,9.44l-41.29-71.52c-.83-7.2-1.83-15.25-2.94-24.2-3.39-27.3-8.65-53.89-35.22-61a49.82,49.82,0,0,0-61,35.22c-7.12,26.58,13.28,44.42,35.22,61,7.2,5.44,13.67,10.33,19.5,14.65l41.31,71.56q-10.38,7.43-20,15.82l-9.68-9.68c-2.19-5.08-4.69-10.74-7.47-17-8.48-19.21-18.12-37.61-38.49-38.49s-36.17,14.91-35.28,35.28,19.28,30,38.49,38.49c6.3,2.78,12,5.28,17,7.47l9.68,9.68q-8.37,9.61-15.82,20L224.21,316c-4.32-5.83-9.21-12.3-14.65-19.5-16.59-21.94-34.43-42.34-61-35.22a49.82,49.82,0,0,0-35.22,61c7.12,26.57,33.71,31.83,61,35.22,8.95,1.11,17,2.11,24.2,2.94l71.52,41.29q-5.26,11.58-9.44,23.72l-13.16-3.53q-6.65-4.95-15-11c-16.95-12.4-34.49-23.51-52.58-14.09S156,427.81,167,445s31.7,16.36,52.58,14.09c6.85-.74,13-1.41,18.49-2.05l13.19,3.54q-2.42,12.42-3.66,25.24H165c-6.66-2.88-14.12-6-22.44-9.55-25.33-10.72-51-19.45-70.44,0a49.81,49.81,0,0,0,0,70.44c19.45,19.45,45.11,10.72,70.44,0,8.32-3.51,15.78-6.67,22.44-9.55h82.63q1.23,12.81,3.66,25.24L238.05,566c-5.49-.64-11.64-1.31-18.49-2.05-20.88-2.27-41.63-3.11-52.58,14.09s-5.18,38.77,12.91,48.19,35.63-1.69,52.58-14.09q8.34-6.09,15-11l13.16-3.53q4.17,12.13,9.44,23.72l-71.52,41.29c-7.2.83-15.25,1.83-24.2,2.94-27.3,3.39-53.89,8.65-61,35.22a49.82,49.82,0,0,0,35.22,61c26.58,7.12,44.42-13.28,61-35.22,5.44-7.2,10.33-13.67,14.65-19.5l71.56-41.31q7.43,10.38,15.82,20l-9.68,9.68c-5.08,2.19-10.74,4.69-17,7.47-19.21,8.48-37.61,18.12-38.49,38.49s14.91,36.17,35.28,35.28,30-19.28,38.49-38.49c2.78-6.3,5.28-12,7.47-17l9.68-9.68q9.61,8.37,20,15.82L316,798.79c-5.83,4.32-12.3,9.21-19.5,14.65-21.94,16.59-42.34,34.43-35.22,61a49.82,49.82,0,0,0,61,35.22c26.57-7.12,31.83-33.71,35.22-61,1.11-8.95,2.11-17,2.94-24.2l41.29-71.52q11.58,5.26,23.72,9.44l-3.53,13.16q-4.95,6.65-11,15c-12.4,17-23.51,34.49-14.09,52.58S427.81,867,445,856s16.36-31.7,14.09-52.58c-.74-6.85-1.41-13-2.05-18.49l3.54-13.19q12.42,2.41,25.24,3.66v82.63c-2.88,6.66-6,14.12-9.55,22.44-10.72,25.33-19.45,51,0,70.44a49.81,49.81,0,0,0,70.44,0c19.45-19.45,10.72-45.11,0-70.44-3.51-8.32-6.67-15.78-9.55-22.44V775.42q12.81-1.23,25.24-3.66L566,785c-.64,5.49-1.31,11.64-2.05,18.49-2.27,20.88-3.11,41.63,14.09,52.58s38.77,5.18,48.19-12.91-1.69-35.63-14.09-52.58q-6.09-8.34-11-15l-3.53-13.16q12.13-4.17,23.72-9.44l41.29,71.52c.83,7.2,1.83,15.25,2.94,24.2,3.39,27.3,8.65,53.89,35.22,61a49.82,49.82,0,0,0,61-35.22c7.12-26.58-13.28-44.42-35.22-61-7.2-5.44-13.67-10.33-19.5-14.65l-41.31-71.56q10.38-7.43,20-15.82l9.68,9.68c2.19,5.08,4.69,10.74,7.47,17,8.48,19.21,18.12,37.61,38.49,38.49s36.17-14.91,35.28-35.28-19.28-30-38.49-38.49c-6.3-2.78-12-5.28-17-7.47l-9.68-9.68q8.37-9.62,15.82-20L798.79,707c4.32,5.83,9.21,12.3,14.65,19.5,16.59,21.94,34.43,42.34,61,35.22a49.82,49.82,0,0,0,35.22-61c-7.12-26.57-33.71-31.83-61-35.22-8.95-1.11-17-2.11-24.2-2.94l-71.52-41.29q5.26-11.58,9.44-23.72l13.16,3.53q6.65,4.95,15,11c17,12.4,34.49,23.51,52.58,14.09S867,595.19,856,578s-31.7-16.36-52.58-14.09c-6.85.74-13,1.41-18.49,2.05l-13.19-3.54q2.41-12.42,3.66-25.24h82.63c6.66,2.88,14.12,6,22.44,9.55,25.33,10.72,51,19.45,70.44,0A49.81,49.81,0,0,0,950.93,476.28ZM311.14,395.82c3.38-5.85,9.21-8.82,13-6.62s4.15,8.72.77,14.58-9.21,8.82-13,6.62S307.76,401.68,311.14,395.82Zm-23,127.92c-4.39,0-8-5.48-8-12.24s3.56-12.24,8-12.24,8,5.48,8,12.24S292.5,523.74,288.1,523.74Zm36,110.06c-3.8,2.2-9.63-.77-13-6.62s-3-12.39.77-14.58,9.63.76,13,6.62S328,631.61,324.15,633.8Zm71.67-322.66c5.86-3.38,12.39-3,14.58.77s-.76,9.63-6.62,13-12.39,3-14.58-.77S390,314.52,395.82,311.14Zm14.58,400c-2.19,3.81-8.72,4.15-14.58.77s-8.82-9.21-6.62-13,8.72-4.15,14.58-.77S412.6,707.29,410.4,711.09ZM399.85,630c-14.55,8.41-36.84-2.94-49.77-25.34s-11.61-47.36,2.94-55.76,36.84,2.94,49.77,25.33S414.4,621.63,399.85,630Zm2.94-181.29c-12.93,22.39-35.21,33.74-49.77,25.33s-15.87-33.37-2.94-55.76S385.3,384.56,399.85,393,415.72,426.34,402.79,448.74ZM511.5,280.15c6.76,0,12.24,3.56,12.24,8s-5.48,8-12.24,8-12.24-3.56-12.24-8S504.74,280.15,511.5,280.15Zm0,45c25.86,0,46.83,13.63,46.83,30.43S537.36,386,511.5,386s-46.83-13.62-46.83-30.43S485.64,325.11,511.5,325.11Zm0,240.33c13.62,0,24.67,7.18,24.67,16s-11,16-24.67,16-24.67-7.18-24.67-16S497.88,565.44,511.5,565.44ZM486.83,441.53c0-8.85,11.05-16,24.67-16s24.67,7.18,24.67,16-11,16-24.67,16S486.83,450.38,486.83,441.53ZM437,468.5c6.81-11.8,18.55-17.77,26.22-13.35s8.36,17.58,1.54,29.38-18.54,17.77-26.21,13.35S430.21,480.3,437,468.5Zm0,86c-6.81-11.8-6.12-25,1.55-29.38s19.4,1.55,26.21,13.35,6.12,24.95-1.54,29.38S443.83,566.3,437,554.5ZM511.5,742.85c-6.76,0-12.24-3.56-12.24-8s5.48-8,12.24-8,12.24,3.56,12.24,8S518.26,742.85,511.5,742.85Zm0-45c-25.86,0-46.83-13.63-46.83-30.43S485.64,637,511.5,637s46.83,13.62,46.83,30.43S537.36,697.89,511.5,697.89ZM586,554.5c-6.81,11.8-18.55,17.77-26.22,13.35s-8.36-17.58-1.54-29.38,18.54-17.77,26.21-13.35S592.79,542.7,586,554.5Zm-1.55-56.62c-7.67,4.42-19.4-1.55-26.21-13.35s-6.12-24.95,1.54-29.38S579.17,456.7,586,468.5,592.1,493.45,584.43,497.88Zm28.17-186c2.19-3.81,8.72-4.15,14.58-.77s8.82,9.21,6.62,13-8.72,4.15-14.58.77S610.4,315.71,612.6,311.91Zm14.58,400c-5.86,3.38-12.39,3-14.58-.77s.76-9.63,6.62-13,12.39-3,14.58.77S633,708.48,627.18,711.86Zm45.74-107.17C660,627.09,637.7,638.44,623.15,630s-15.87-33.37-2.94-55.77,35.21-33.74,49.77-25.33S685.85,582.3,672.92,604.69ZM670,474.07c-14.56,8.41-36.84-2.94-49.77-25.33S608.6,401.37,623.15,393s36.84,2.94,49.77,25.34S684.53,465.67,670,474.07Zm41.88,153.11c-3.38,5.85-9.21,8.82-13,6.62s-4.15-8.72-.77-14.58,9.21-8.82,13-6.62S715.24,621.32,711.86,627.18Zm-.77-216.78c-3.8,2.2-9.63-.76-13-6.62s-3-12.39.77-14.58,9.63.77,13,6.62S714.9,408.21,711.09,410.4ZM734.9,523.74c-4.4,0-8-5.48-8-12.24s3.56-12.24,8-12.24,8,5.48,8,12.24S739.29,523.74,734.9,523.74Z" transform="translate(-57.48 -57.48)"/></svg>